<svg width="563" height="136" viewBox="0 0 563 136" fill="none" xmlns="http://www.w3.org/2000/svg">
<rect width="123.723" height="136" rx="18.5309" fill="url(#paint0_linear_12_417)"/>
<path d="M69.0335 75.8835V44.3473V75.8835ZM69.0335 75.8835L90.9174 89.6294C92.3518 90.5305 94.1367 89.3921 94.1367 87.576V32.6549C94.1367 30.8388 92.3518 29.7002 90.9174 30.6013L69.0335 44.3473M69.0335 75.8835H43.9304C36.0081 75.8835 29.5858 68.8237 29.5858 60.1154C29.5858 51.4069 36.0081 44.3473 43.9304 44.3473H69.0335" fill="white"/>
<path d="M69.0335 75.8835V44.3473M69.0335 75.8835L90.9174 89.6294C92.3518 90.5305 94.1367 89.3921 94.1367 87.576V32.6549C94.1367 30.8388 92.3518 29.7002 90.9174 30.6013L69.0335 44.3473M69.0335 75.8835H43.9304C36.0081 75.8835 29.5858 68.8237 29.5858 60.1154C29.5858 51.4069 36.0081 44.3473 43.9304 44.3473H69.0335" stroke="white" stroke-width="4.22987"/>
<path d="M46.6457 96.7764L43.9304 75.8833H58.2751L60.7036 94.5689C61.3147 99.271 57.9953 103.478 53.6746 103.478C50.1411 103.478 47.1454 100.622 46.6457 96.7764Z" fill="white" stroke="white" stroke-width="4.22987"/>
<rect x="146.282" width="123.723" height="136" rx="18.5309" fill="url(#paint1_linear_12_417)"/>
<path d="M227.508 29.7014C230.499 29.7014 232.479 32.2804 232.479 34.887V101.113C232.479 103.719 230.499 106.298 227.508 106.298H188.777C185.787 106.298 183.806 103.719 183.806 101.113V42.7708C183.806 40.1643 185.787 37.5865 188.777 37.5862H205.323V34.887C205.323 32.2804 207.304 29.7015 210.295 29.7014H227.508ZM202.836 85.5608C201.651 84.5504 199.871 84.6921 198.86 85.8772L198.825 85.9182C197.815 87.1033 197.957 88.8835 199.142 89.8938C200.327 90.9038 202.106 90.762 203.116 89.5774L203.152 89.5354C204.162 88.3504 204.021 86.5712 202.836 85.5608ZM217.181 85.5608C215.996 84.5504 214.216 84.6921 213.205 85.8772L213.17 85.9182C212.16 87.1033 212.301 88.8835 213.486 89.8938C214.671 90.9038 216.451 90.7621 217.461 89.5774L217.497 89.5354C218.507 88.3504 218.365 86.5712 217.181 85.5608ZM202.836 69.7932C201.651 68.7828 199.871 68.9237 198.86 70.1086L198.825 70.1506C197.815 71.3356 197.956 73.1157 199.141 74.1262C200.326 75.1367 202.106 74.9948 203.116 73.8098L203.152 73.7688C204.163 72.5838 204.021 70.8037 202.836 69.7932ZM217.181 69.7932C215.996 68.7828 214.216 68.9237 213.205 70.1086L213.17 70.1506C212.16 71.3356 212.301 73.1157 213.485 74.1262C214.67 75.1367 216.45 74.9949 217.461 73.8098L217.497 73.7688C218.508 72.5838 218.366 70.8037 217.181 69.7932ZM202.835 54.0237C201.649 53.0138 199.869 53.1556 198.859 54.3411L198.824 54.3831C197.815 55.5685 197.956 57.3488 199.142 58.3586C200.327 59.3683 202.107 59.2255 203.117 58.0403L203.153 57.9993C204.163 56.8138 204.02 55.0336 202.835 54.0237ZM217.18 54.0237C215.994 53.0138 214.214 53.1556 213.204 54.3411L213.169 54.3831C212.159 55.5685 212.301 57.3487 213.486 58.3586C214.672 59.3684 216.452 59.2256 217.462 58.0403L217.498 57.9993C218.508 56.8138 218.365 55.0336 217.18 54.0237Z" fill="white"/>
<rect x="292.564" width="123.723" height="136" rx="18.5309" fill="url(#paint2_linear_12_417)"/>
<path d="M349.046 38.4343V56.8335C349.046 57.649 348.663 58.407 348.034 58.8392L321.368 77.1596C320.739 77.592 320.356 78.3501 320.356 79.1653V82.7092C320.356 84.2481 321.672 85.3772 323.03 85.0038L346.372 78.5894C347.73 78.2161 349.046 79.3451 349.046 80.884V92.5493C349.046 93.2316 348.778 93.8805 348.311 94.3295L340.564 101.781C338.92 103.362 340.217 106.318 342.366 105.888L354.04 103.555C354.294 103.504 354.556 103.504 354.81 103.555L366.485 105.888C368.633 106.318 369.93 103.362 368.286 101.781L360.539 94.3295C360.072 93.8805 359.804 93.2316 359.804 92.5493V80.884C359.804 79.3451 361.12 78.2161 362.478 78.5894L385.82 85.0038C387.178 85.3772 388.494 84.2481 388.494 82.7092V79.1653C388.494 78.3501 388.111 77.592 387.482 77.1596L360.816 58.8392C360.187 58.407 359.804 57.649 359.804 56.8335V38.4343C359.804 35.1686 357.396 32.5212 354.425 32.5212C351.454 32.5212 349.046 35.1686 349.046 38.4343Z" fill="white"/>
<rect x="438.846" width="123.723" height="136" rx="18.5309" fill="url(#paint3_linear_12_417)"/>
<path d="M527.603 107.42C530.574 107.42 532.982 104.773 532.982 101.507C532.982 98.2417 530.574 95.5942 527.603 95.5942C524.632 95.5942 522.224 98.2417 522.224 101.507C522.224 104.773 524.632 107.42 527.603 107.42Z" fill="white" stroke="white" stroke-width="5.63983" stroke-linecap="round" stroke-linejoin="round"/>
<path d="M491.741 107.42C494.712 107.42 497.121 104.773 497.121 101.507C497.121 98.2417 494.712 95.5942 491.741 95.5942C488.771 95.5942 486.362 98.2417 486.362 101.507C486.362 104.773 488.771 107.42 491.741 107.42Z" fill="white" stroke="white" stroke-width="5.63983" stroke-linecap="round" stroke-linejoin="round"/>
<path d="M475.604 36.4627H536.569L529.396 79.825H482.776L475.604 36.4627ZM475.604 36.4627C475.006 33.8346 472.018 28.5786 464.845 28.5786L475.604 36.4627Z" fill="white"/>
<path d="M475.604 36.4627H536.569L529.396 79.825H482.776L475.604 36.4627ZM475.604 36.4627C475.006 33.8346 472.018 28.5786 464.845 28.5786" stroke="white" stroke-width="5.63983" stroke-linecap="round" stroke-linejoin="round"/>
<path d="M529.396 79.8254H482.776H476.431C470.033 79.8254 466.638 82.905 466.638 87.7095C466.638 92.514 470.033 95.5936 476.431 95.5936H527.603" stroke="white" stroke-width="5.63983" stroke-linecap="round" stroke-linejoin="round"/>
<defs>
<linearGradient id="paint0_linear_12_417" x1="-7.32731e-07" y1="68" x2="559.513" y2="68" gradientUnits="userSpaceOnUse">
<stop stop-color="#83DA4E"/>
<stop offset="0.5" stop-color="#41B856"/>
<stop offset="1" stop-color="#54ACB8"/>
</linearGradient>
<linearGradient id="paint1_linear_12_417" x1="1.04236" y1="68" x2="560.556" y2="68" gradientUnits="userSpaceOnUse">
<stop stop-color="#83DA4E"/>
<stop offset="0.5" stop-color="#41B856"/>
<stop offset="1" stop-color="#54ACB8"/>
</linearGradient>
<linearGradient id="paint2_linear_12_417" x1="2.08467" y1="68" x2="561.598" y2="68" gradientUnits="userSpaceOnUse">
<stop stop-color="#83DA4E"/>
<stop offset="0.5" stop-color="#41B856"/>
<stop offset="1" stop-color="#54ACB8"/>
</linearGradient>
<linearGradient id="paint3_linear_12_417" x1="3.12713" y1="68" x2="562.088" y2="68" gradientUnits="userSpaceOnUse">
<stop stop-color="#83DA4E"/>
<stop offset="0.5" stop-color="#41B856"/>
<stop offset="1" stop-color="#54ACB8"/>
</linearGradient>
</defs>
</svg>
