<svg width="596" height="387" viewBox="0 0 596 387" fill="none" xmlns="http://www.w3.org/2000/svg">
<rect width="596" height="389" rx="40" fill="#FFDDC5"/>
<rect x="24" y="24" width="548" height="341" rx="40" fill="white" fill-opacity="0.75"/>
<rect x="175.66" y="254.021" width="56.7376" height="56.7376" rx="28.3688" fill="white"/>
<g clip-path="url(#clip0_2045_608)">
<path d="M211.416 279.435H215.849M215.849 279.435H220.281M215.849 279.435V275.002M215.849 279.435V283.868" stroke="#1C1C1C" stroke-width="2.65957" stroke-linecap="round" stroke-linejoin="round"/>
<path d="M187.775 294.21V292.733C187.775 287.021 192.406 282.39 198.118 282.39C203.83 282.39 208.461 287.021 208.461 292.733V294.21" fill="#1C1C1C"/>
<path d="M198.118 282.39C201.382 282.39 204.028 279.744 204.028 276.48C204.028 273.215 201.382 270.569 198.118 270.569C194.854 270.569 192.208 273.215 192.208 276.48C192.208 279.744 194.854 282.39 198.118 282.39Z" fill="#1C1C1C"/>
</g>
<path d="M184.197 322.956V335.851H182.252V322.956H184.197ZM188.762 330.109V335.851H186.88V326.18H188.687V327.754H188.806C189.029 327.242 189.377 326.831 189.851 326.52C190.33 326.209 190.932 326.054 191.659 326.054C192.318 326.054 192.895 326.192 193.39 326.47C193.885 326.742 194.269 327.15 194.542 327.691C194.815 328.233 194.952 328.902 194.952 329.7V335.851H193.069V329.926C193.069 329.225 192.886 328.677 192.521 328.283C192.156 327.884 191.654 327.685 191.016 327.685C190.58 327.685 190.191 327.779 189.851 327.968C189.516 328.157 189.249 328.434 189.052 328.799C188.859 329.16 188.762 329.597 188.762 330.109ZM205.403 326.18L201.896 335.851H199.882L196.368 326.18H198.389L200.839 333.622H200.939L203.382 326.18H205.403ZM207.173 335.851V326.18H209.055V335.851H207.173ZM208.123 324.688C207.796 324.688 207.515 324.579 207.28 324.36C207.049 324.138 206.933 323.873 206.933 323.567C206.933 323.256 207.049 322.992 207.28 322.774C207.515 322.551 207.796 322.44 208.123 322.44C208.451 322.44 208.73 322.551 208.961 322.774C209.196 322.992 209.313 323.256 209.313 323.567C209.313 323.873 209.196 324.138 208.961 324.36C208.73 324.579 208.451 324.688 208.123 324.688ZM216.102 326.18V327.691H210.82V326.18H216.102ZM212.237 323.863H214.119V333.011C214.119 333.377 214.174 333.652 214.283 333.836C214.392 334.017 214.533 334.141 214.705 334.208C214.881 334.271 215.072 334.302 215.278 334.302C215.429 334.302 215.561 334.292 215.674 334.271C215.788 334.25 215.876 334.233 215.939 334.22L216.279 335.776C216.17 335.817 216.014 335.859 215.813 335.901C215.611 335.948 215.36 335.973 215.057 335.977C214.562 335.985 214.1 335.897 213.672 335.713C213.244 335.528 212.898 335.242 212.633 334.856C212.369 334.47 212.237 333.985 212.237 333.402V323.863ZM222.249 336.046C221.296 336.046 220.476 335.843 219.787 335.436C219.103 335.024 218.574 334.447 218.201 333.704C217.831 332.957 217.647 332.082 217.647 331.078C217.647 330.088 217.831 329.215 218.201 328.459C218.574 327.704 219.095 327.114 219.762 326.69C220.434 326.266 221.219 326.054 222.117 326.054C222.663 326.054 223.192 326.144 223.704 326.325C224.216 326.505 224.675 326.789 225.083 327.175C225.49 327.561 225.811 328.062 226.046 328.68C226.281 329.292 226.399 330.037 226.399 330.915V331.582H218.711V330.172H224.554C224.554 329.676 224.453 329.238 224.252 328.856C224.05 328.47 223.767 328.165 223.402 327.943C223.041 327.72 222.617 327.609 222.13 327.609C221.601 327.609 221.139 327.739 220.744 328C220.354 328.256 220.052 328.591 219.838 329.007C219.628 329.418 219.523 329.865 219.523 330.348V331.45C219.523 332.096 219.636 332.646 219.863 333.1C220.094 333.553 220.415 333.899 220.826 334.138C221.238 334.374 221.718 334.491 222.268 334.491C222.625 334.491 222.95 334.441 223.244 334.34C223.538 334.235 223.792 334.08 224.006 333.874C224.22 333.668 224.384 333.414 224.497 333.112L226.279 333.433C226.136 333.958 225.88 334.418 225.511 334.812C225.146 335.203 224.686 335.507 224.132 335.725C223.582 335.939 222.954 336.046 222.249 336.046Z" fill="#1C1C1C"/>
<rect x="269.631" y="254.021" width="56.7376" height="56.7376" rx="28.3688" fill="white"/>
<path d="M298 268.206V296.574" stroke="#1C1C1C" stroke-width="3.5461" stroke-linecap="round"/>
<path d="M312.184 282.39L283.816 282.39" stroke="#1C1C1C" stroke-width="3.5461" stroke-linecap="round"/>
<path d="M269.828 324.631V322.956H279.808V324.631H275.784V335.851H273.845V324.631H269.828ZM284.533 336.046C283.626 336.046 282.835 335.838 282.159 335.423C281.483 335.007 280.959 334.426 280.585 333.679C280.212 332.932 280.025 332.059 280.025 331.06C280.025 330.056 280.212 329.179 280.585 328.428C280.959 327.676 281.483 327.093 282.159 326.677C282.835 326.262 283.626 326.054 284.533 326.054C285.44 326.054 286.231 326.262 286.907 326.677C287.583 327.093 288.107 327.676 288.481 328.428C288.854 329.179 289.041 330.056 289.041 331.06C289.041 332.059 288.854 332.932 288.481 333.679C288.107 334.426 287.583 335.007 286.907 335.423C286.231 335.838 285.44 336.046 284.533 336.046ZM284.539 334.466C285.127 334.466 285.614 334.311 286 334C286.386 333.689 286.672 333.276 286.856 332.76C287.045 332.243 287.14 331.675 287.14 331.053C287.14 330.436 287.045 329.87 286.856 329.353C286.672 328.833 286.386 328.415 286 328.1C285.614 327.785 285.127 327.628 284.539 327.628C283.947 327.628 283.456 327.785 283.066 328.1C282.68 328.415 282.392 328.833 282.203 329.353C282.019 329.87 281.926 330.436 281.926 331.053C281.926 331.675 282.019 332.243 282.203 332.76C282.392 333.276 282.68 333.689 283.066 334C283.456 334.311 283.947 334.466 284.539 334.466ZM291.143 339.478V326.18H292.981V327.748H293.139C293.248 327.546 293.405 327.313 293.611 327.049C293.816 326.784 294.102 326.553 294.467 326.356C294.832 326.155 295.315 326.054 295.915 326.054C296.696 326.054 297.393 326.251 298.006 326.646C298.618 327.04 299.099 327.609 299.447 328.352C299.8 329.095 299.976 329.989 299.976 331.034C299.976 332.08 299.802 332.976 299.454 333.723C299.105 334.466 298.627 335.039 298.018 335.442C297.41 335.841 296.715 336.04 295.934 336.04C295.346 336.04 294.866 335.941 294.492 335.744C294.123 335.547 293.833 335.316 293.623 335.051C293.413 334.787 293.252 334.552 293.139 334.346H293.025V339.478H291.143ZM292.987 331.015C292.987 331.695 293.086 332.292 293.283 332.804C293.481 333.316 293.766 333.717 294.14 334.006C294.513 334.292 294.971 334.434 295.512 334.434C296.075 334.434 296.545 334.285 296.923 333.987C297.3 333.685 297.586 333.276 297.779 332.76C297.976 332.243 298.075 331.662 298.075 331.015C298.075 330.377 297.978 329.804 297.785 329.297C297.596 328.789 297.311 328.388 296.929 328.094C296.551 327.8 296.079 327.653 295.512 327.653C294.967 327.653 294.505 327.794 294.127 328.075C293.753 328.356 293.47 328.749 293.277 329.253C293.084 329.756 292.987 330.344 292.987 331.015ZM312.904 331.84V326.18H314.793V335.851H312.942V334.176H312.841C312.619 334.693 312.262 335.123 311.771 335.467C311.284 335.807 310.678 335.977 309.951 335.977C309.33 335.977 308.78 335.841 308.302 335.568C307.827 335.291 307.454 334.881 307.181 334.34C306.912 333.798 306.778 333.129 306.778 332.331V326.18H308.661V332.105C308.661 332.764 308.843 333.288 309.208 333.679C309.574 334.069 310.048 334.264 310.631 334.264C310.984 334.264 311.334 334.176 311.683 334C312.035 333.824 312.327 333.557 312.558 333.2C312.793 332.844 312.909 332.39 312.904 331.84ZM317.323 339.478V326.18H319.161V327.748H319.319C319.428 327.546 319.585 327.313 319.791 327.049C319.997 326.784 320.282 326.553 320.647 326.356C321.012 326.155 321.495 326.054 322.095 326.054C322.876 326.054 323.573 326.251 324.186 326.646C324.799 327.04 325.279 327.609 325.628 328.352C325.98 329.095 326.157 329.989 326.157 331.034C326.157 332.08 325.982 332.976 325.634 333.723C325.286 334.466 324.807 335.039 324.198 335.442C323.59 335.841 322.895 336.04 322.114 336.04C321.527 336.04 321.046 335.941 320.672 335.744C320.303 335.547 320.013 335.316 319.804 335.051C319.594 334.787 319.432 334.552 319.319 334.346H319.205V339.478H317.323ZM319.168 331.015C319.168 331.695 319.266 332.292 319.464 332.804C319.661 333.316 319.946 333.717 320.32 334.006C320.693 334.292 321.151 334.434 321.692 334.434C322.255 334.434 322.725 334.285 323.103 333.987C323.481 333.685 323.766 333.276 323.959 332.76C324.156 332.243 324.255 331.662 324.255 331.015C324.255 330.377 324.158 329.804 323.965 329.297C323.777 328.789 323.491 328.388 323.109 328.094C322.731 327.8 322.259 327.653 321.692 327.653C321.147 327.653 320.685 327.794 320.307 328.075C319.934 328.356 319.65 328.749 319.457 329.253C319.264 329.756 319.168 330.344 319.168 331.015Z" fill="#1C1C1C"/>
<rect x="363.603" y="254.021" width="56.7376" height="56.7376" rx="28.3688" fill="white"/>
<path d="M399.95 282.39H402.743C403.404 282.39 403.94 282.926 403.94 283.587V297.151C403.94 297.812 403.404 298.348 402.743 298.348H381.2C380.539 298.348 380.004 297.812 380.004 297.151V283.587C380.004 282.926 380.539 282.39 381.2 282.39H383.993M399.95 282.39V274.411C399.95 271.752 398.355 266.433 391.972 266.433C385.589 266.433 383.993 271.752 383.993 274.411V282.39M399.95 282.39H383.993" stroke="#232323" stroke-width="3.5461" stroke-linecap="round" stroke-linejoin="round"/>
<path d="M370.074 335.851V322.956H374.796C375.711 322.956 376.469 323.107 377.069 323.41C377.669 323.708 378.118 324.113 378.416 324.625C378.714 325.133 378.863 325.706 378.863 326.344C378.863 326.881 378.765 327.334 378.567 327.704C378.37 328.069 378.106 328.363 377.774 328.585C377.447 328.803 377.086 328.963 376.691 329.064V329.19C377.119 329.211 377.537 329.349 377.944 329.605C378.355 329.857 378.695 330.216 378.964 330.682C379.233 331.148 379.367 331.714 379.367 332.382C379.367 333.041 379.212 333.633 378.901 334.157C378.595 334.678 378.12 335.091 377.478 335.398C376.836 335.7 376.015 335.851 375.016 335.851H370.074ZM372.019 334.183H374.827C375.759 334.183 376.427 334.002 376.83 333.641C377.233 333.28 377.434 332.829 377.434 332.287C377.434 331.88 377.331 331.507 377.126 331.167C376.92 330.827 376.626 330.556 376.244 330.354C375.866 330.153 375.417 330.052 374.897 330.052H372.019V334.183ZM372.019 328.535H374.626C375.062 328.535 375.455 328.451 375.803 328.283C376.156 328.115 376.435 327.88 376.641 327.578C376.851 327.271 376.956 326.91 376.956 326.495C376.956 325.962 376.769 325.515 376.395 325.154C376.022 324.793 375.449 324.612 374.676 324.612H372.019V328.535ZM383.406 322.956V335.851H381.524V322.956H383.406ZM390.013 336.046C389.106 336.046 388.315 335.838 387.639 335.423C386.963 335.007 386.438 334.426 386.065 333.679C385.691 332.932 385.504 332.059 385.504 331.06C385.504 330.056 385.691 329.179 386.065 328.428C386.438 327.676 386.963 327.093 387.639 326.677C388.315 326.262 389.106 326.054 390.013 326.054C390.919 326.054 391.711 326.262 392.386 326.677C393.062 327.093 393.587 327.676 393.96 328.428C394.334 329.179 394.521 330.056 394.521 331.06C394.521 332.059 394.334 332.932 393.96 333.679C393.587 334.426 393.062 335.007 392.386 335.423C391.711 335.838 390.919 336.046 390.013 336.046ZM390.019 334.466C390.607 334.466 391.094 334.311 391.48 334C391.866 333.689 392.151 333.276 392.336 332.76C392.525 332.243 392.619 331.675 392.619 331.053C392.619 330.436 392.525 329.87 392.336 329.353C392.151 328.833 391.866 328.415 391.48 328.1C391.094 327.785 390.607 327.628 390.019 327.628C389.427 327.628 388.936 327.785 388.546 328.1C388.159 328.415 387.872 328.833 387.683 329.353C387.498 329.87 387.406 330.436 387.406 331.053C387.406 331.675 387.498 332.243 387.683 332.76C387.872 333.276 388.159 333.689 388.546 334C388.936 334.311 389.427 334.466 390.019 334.466ZM400.696 336.046C399.76 336.046 398.954 335.834 398.278 335.41C397.607 334.982 397.09 334.392 396.729 333.641C396.368 332.89 396.188 332.029 396.188 331.06C396.188 330.077 396.372 329.211 396.742 328.459C397.111 327.704 397.632 327.114 398.303 326.69C398.975 326.266 399.766 326.054 400.677 326.054C401.412 326.054 402.066 326.19 402.642 326.463C403.217 326.732 403.68 327.11 404.033 327.597C404.39 328.083 404.602 328.652 404.669 329.303H402.837C402.736 328.85 402.505 328.459 402.144 328.132C401.787 327.804 401.309 327.641 400.709 327.641C400.184 327.641 399.724 327.779 399.33 328.056C398.939 328.329 398.635 328.719 398.417 329.227C398.198 329.731 398.089 330.327 398.089 331.015C398.089 331.721 398.196 332.329 398.41 332.841C398.624 333.354 398.927 333.75 399.317 334.031C399.712 334.313 400.175 334.453 400.709 334.453C401.065 334.453 401.389 334.388 401.678 334.258C401.972 334.124 402.218 333.933 402.415 333.685C402.616 333.437 402.757 333.139 402.837 332.791H404.669C404.602 333.416 404.398 333.975 404.058 334.466C403.718 334.957 403.263 335.343 402.692 335.624C402.125 335.906 401.46 336.046 400.696 336.046ZM408.414 332.571L408.401 330.273H408.729L412.582 326.18H414.836L410.441 330.839H410.145L408.414 332.571ZM406.682 335.851V322.956H408.565V335.851H406.682ZM412.79 335.851L409.327 331.255L410.624 329.939L415.1 335.851H412.79Z" fill="#1C1C1C"/>
<defs>
<clipPath id="clip0_2045_608">
<rect width="35.461" height="35.461" fill="white" transform="translate(186.298 264.66)"/>
</clipPath>
</defs>
</svg>
